<?xml version="1.0" encoding="utf-8"?>
<!-- Generator: Adobe Illustrator 17.0.0, SVG Export Plug-In . SVG Version: 6.00 Build 0)  -->
<!DOCTYPE svg PUBLIC "-//W3C//DTD SVG 1.1//EN" "http://www.w3.org/Graphics/SVG/1.1/DTD/svg11.dtd">
<svg version="1.1" id="图层_1" xmlns="http://www.w3.org/2000/svg" xmlns:xlink="http://www.w3.org/1999/xlink" x="0px" y="0px"
	 width="199.136px" height="200.214px" viewBox="0 0 199.136 200.214" enable-background="new 0 0 199.136 200.214"
	 xml:space="preserve">
<g>
	<g>
		<path fill="#FFFFFF" d="M135.988,12.072C70.695-8.765,26.648,40.905,14.616,74.151c-17.866,49.367-2.248,90.716,42.822,109.29
			c47.721,19.9,110.468,9.435,127.596-41.355C200.837,95.23,190.554,29.485,135.988,12.072z"/>
		<path fill="#006BA8" d="M137.952,4.808C102.05-6.19,65.988,1.859,37.945,27.123c-23.803,21.444-37.7,53.199-37.942,85.524
			c-0.572,76.452,95.626,105.584,153.658,76.485c35.471-17.786,47.364-59.342,45.238-97.051
			C196.683,52.773,175.648,17.386,137.952,4.808c-9.081-3.03-12.939,11.521-3.927,14.528c33.01,11.015,48.914,42.939,50.293,76.701
			c0.656,16.074-1.718,33.279-7.931,48.149c-6.499,15.555-18.827,26.624-33.649,33.625c-30.772,14.535-71.587,8.079-99.323-10.358
			c-31.705-21.075-33.625-60.924-20.658-93.957c7.233-18.425,21.8-34.572,37.948-45.25c22.162-14.655,48.384-16.549,73.321-8.911
			C143.172,22.138,147.052,7.595,137.952,4.808z"/>
	</g>
	<g>
		<g>
			<path fill="#006BA8" d="M74.326,124.403c-13.267-11.275-32.062,9.02-18.795,20.295C69.903,154.846,88.698,135.678,74.326,124.403
				z"/>
			<path fill="#006BA8" d="M77.841,120.819c-8.141-6.5-18.185-6.014-25.821,1.119c-7.456,6.964-7.806,18.422-0.734,25.686
				c7.593,7.8,20.382,5.73,27.656-1.167C86.628,139.168,85.773,127.421,77.841,120.819c-4.922-4.096-12,3.033-7.03,7.17
				c9.552,7.95-3.311,17.883-11.92,12.896c-9.018-5.224,3.756-19.414,11.92-12.896C75.797,131.969,82.886,124.846,77.841,120.819z"
				/>
		</g>
		<g>
			<path fill="#006BA8" d="M92.486,77.602c7.739-2.255,41.839,4.444,45.963-33.251c-18.795,13.53-30.956,7.892-40.906,15.785
				C89.804,65.774,94.433,63.026,92.486,77.602c-2.336,17.487-4.893,47.811-14.843,62.469"/>
			<path fill="#006BA8" d="M94.248,84.12c7.664-1.916,18.688-0.873,27.507-4.553c14.797-6.175,21.32-19.732,23.322-35.216
				c0.654-5.056-6.123-8.476-9.973-5.837c-10.855,7.442-21.747,7.921-33.65,11.944c-6.694,2.262-15.33,7.759-15.23,15.807
				c0.135,10.916-1.558,21.751-3.142,32.547c-1.88,12.82-4.099,26.806-11.163,37.846c-4.687,7.325,6.795,14.092,11.446,6.823
				c12.425-19.418,13.456-46.018,16.041-68.417c0.262-2.269,0.266-4.559,0.184-6.838c-0.11-3.062,0.806-2.779-1.143-0.254
				c2.212-2.866,6.274-4.494,9.581-5.421c12.224-3.427,22.876-4.899,33.765-12.365c-3.324-1.946-6.649-3.891-9.973-5.837
				c-1.615,12.491-7.929,21.179-19.961,24.314c-6.937,1.808-14.23,0.692-21.136,2.419C82.424,73.159,85.945,86.195,94.248,84.12
				L94.248,84.12z"/>
		</g>
	</g>
</g>
</svg>
