<?xml version="1.0" encoding="utf-8"?><!DOCTYPE svg PUBLIC "-//W3C//DTD SVG 1.1//EN" "http://www.w3.org/Graphics/SVG/1.1/DTD/svg11.dtd"><svg width="208" height="156" viewBox="0 0 208 156" xmlns="http://www.w3.org/2000/svg" xmlns:xlink="http://www.w3.org/1999/xlink"><svg width="52" height="52" viewBox="-320 -320 1664 1664" id="iconfont-close"><path fill="#272636" d="M512 0C229.23 0 0 229.23 0 512s229.23 512 512 512 512-229.23 512-512S794.77 0 512 0zm0 955.986c-245.207 0-443.986-198.78-443.986-443.986S266.794 68.014 512 68.014c245.206 0 443.984 198.78 443.984 443.986.002 245.206-198.778 443.986-443.985 443.986zm248.185-318.523L634.722 512l125.463-125.463c25.964-25.963 25.963-68.057 0-94.02l-28.702-28.702c-25.964-25.963-68.057-25.963-94.02 0L512 389.278 386.537 263.815c-25.963-25.963-68.056-25.963-94.02 0l-28.702 28.702c-25.963 25.963-25.964 68.058 0 94.02L389.278 512 263.814 637.463c-25.964 25.964-25.963 68.057 0 94.02l28.702 28.702c25.963 25.964 68.057 25.964 94.02 0L512 634.722 637.46 760.185c25.964 25.964 68.057 25.964 94.02 0l28.703-28.702c25.964-25.963 25.964-68.056 0-94.02z"/></svg><svg width="52" height="52" viewBox="-320 -320 1664 1664" id="iconfont-dypaper" x="52"><linearGradient id="ba" gradientUnits="userSpaceOnUse" x1="-5.328" y1="107.819" x2="895.781" y2="811.842"><stop offset="0" stop-color="#FFD41C"/><stop offset="1" stop-color="#3B7A8A"/></linearGradient><path fill="url(#ba)" d="M78.91 0v1024h590.91l275.27-275.27V0H78.91zm591.727 932.397V748.903h185.94l-185.94 183.494zM875.74 690.294H620.725V954.65H148.26V69.35h727.48v620.944zM219.24 180.07h567.61v92.97H219.24v-92.97zm0 217.748h567.61v92.97H219.24v-92.97zm0 217.746H507.94v92.97H219.24v-92.97z"/></svg><svg width="52" height="52" viewBox="-320 -320 1664 1664" id="iconfont-refresh" y="52"><path fill="#272636" d="M955.136 551.488c9.92 23.936 4.416 51.456-13.888 69.76l-128 128C800.768 761.728 784.384 768 768 768c-16.384 0-32.768-6.272-45.248-18.752l-128-128c-18.304-18.304-23.744-45.824-13.888-69.76C590.72 527.616 614.144 512 640 512h64c0-141.376-114.624-256-256-256S192 370.624 192 512s114.624 256 256 256c33.344 0 64.896-6.784 94.144-18.368l96.512 95.36C582.464 877.248 517.44 896 448 896 235.968 896 64 724.032 64 512s171.968-384 384-384 384 171.968 384 384h64c25.856 0 49.28 15.616 59.136 39.488z"/></svg><svg width="52" height="52" viewBox="-320 -320 1664 1664" id="iconfont-s11" x="52" y="52"><path fill="#272636" d="M505.376 575.748h243.602l-41.93-41.93 47.756-47.754L927.38 658.632 754.803 831.2l-47.756-47.756 41.93-41.93H505.377zm361.118-60.85V254.296L666.53 64.76H109.254c-4.807 0-8.703 3.896-8.703 8.702V949.36c0 4.805 3.897 8.702 8.704 8.702h748.538c4.807 0 8.702-3.897 8.702-8.702V794.262h-64.487v81.353c0 3.996-3.24 7.237-7.237 7.237H172.275c-3.998 0-7.238-3.24-7.238-7.237v-728.41c0-3.996 3.24-7.236 7.238-7.236h448.913v137.348c0 18.074 14.653 32.725 32.726 32.725h148.093v204.855h64.487z"/></svg><svg width="52" height="52" viewBox="-320 -320 1664 1664" id="iconfont-s15" x="104"><path fill="#272636" d="M907.837 325.078L512.34 720.558l-395.496-395.48-49.632 49.628 445.128 445.11 445.127-445.11z"/></svg><svg width="52" height="52" viewBox="-320 -320 1664 1664" id="iconfont-s16" x="104" y="52"><path fill="#272636" d="M907.837 699.07L512.34 303.59 116.844 699.07l-49.632-49.628L512.34 204.334l445.127 445.108z"/></svg><svg width="52" height="52" viewBox="-320 -320 1664 1664" id="iconfont-search" y="104"><path fill="#272636" d="M46.545 1024h651.637c25.662 0 46.545-21.536 46.545-48V736c0-.32-.155-.576-.186-.896 1.708-1.12 3.476-2.176 5.152-3.36L997.5 987.296c3.04 3.136 7.013 4.704 10.985 4.704s7.944-1.568 10.985-4.672c6.05-6.24 6.05-16.384 0-22.624L773.927 711.488c39.222-37.984 63.89-91.776 63.89-151.488 0-73.504-37.266-138.112-93.276-175.104.032-.32.187-.576.187-.896v-80c0-.544-.248-.992-.28-1.504-.06-.736-.247-1.376-.402-2.08-.528-2.272-1.428-4.32-2.793-6.112-.217-.288-.186-.64-.404-.928l-248.242-288c-.093-.096-.217-.096-.31-.192-1.862-2.08-4.25-3.456-6.92-4.288-.59-.192-1.117-.256-1.738-.352-.9-.16-1.737-.544-2.668-.544H46.545C20.883 0 0 21.536 0 48v928c0 26.464 20.883 48 46.545 48zm760.243-464c0 97.056-76.583 176-170.667 176s-170.665-78.944-170.665-176 76.582-176 170.666-176S806.79 462.944 806.79 560zM496.485 58.08L694.675 288H512c-6.827 0-15.515-13.44-15.515-24V58.08zM31.03 48c0-8.832 6.982-16 15.515-16h418.91v232c0 25.888 20.324 56 46.545 56h201.697v48.032C689.804 357.728 663.614 352 636.12 352c-57.032 0-108.48 24.64-145.19 64H170.667c-8.565 0-15.515 7.168-15.515 16s6.95 16 15.515 16h295.78c-17.532 28.128-28.61 60.832-31.216 96H170.668c-8.565 0-15.515 7.168-15.515 16s6.95 16 15.515 16H435.2c2.607 35.168 13.715 67.872 31.216 96h-295.75c-8.564 0-15.514 7.168-15.514 16s6.95 16 15.515 16h318.06c.652 0 1.21-.288 1.862-.384C527.33 743.2 578.93 768 636.12 768c27.494 0 53.684-5.728 77.577-16.064V976c0 8.832-6.982 16-15.515 16H46.545c-8.688 0-15.515-7.04-15.515-16V48zm139.637 272h186.18c8.566 0 15.517-7.168 15.517-16s-6.95-16-15.516-16h-186.18c-8.566 0-15.516 7.168-15.516 16s6.95 16 15.515 16zm0 512H574.06c8.565 0 15.516-7.168 15.516-16s-6.95-16-15.515-16H170.668c-8.565 0-15.515 7.168-15.515 16s6.95 16 15.515 16z"/></svg><svg width="52" height="52" viewBox="-320 -320 1664 1664" id="iconfont-submitsuccess" x="52" y="104"><path fill="#272636" d="M511.996 44C274.026 44 81.08 236.922 81.08 474.915c0 238 192.945 430.922 430.916 430.922 237.976 0 430.922-192.92 430.922-430.922C942.918 236.92 749.973 44 511.996 44zm260.936 315.335L468.215 664.032c-9.354 9.353-24.502 9.353-33.854 0l-16.928-16.923c-.005-.012-.016-.026-.026-.038L298.95 528.596c-9.353-9.353-9.353-24.5 0-33.854l16.926-16.926c9.354-9.35 24.502-9.35 33.85 0l101.565 101.56 270.866-270.823c9.35-9.35 24.5-9.35 33.85 0l16.925 16.93c9.353 9.347 9.353 24.496.002 33.85zm0 0zm-308.03 534.943L513.005 1024l48.1-129.722z"/></svg><svg width="52" height="41.17" viewBox="-483.75 -483.75 2515.5 1991.5" id="iconfont-tipserror" x="104" y="104"><path fill="#272636" d="M1187.442 474.915C1187.44 236.92 994.495 44 756.52 44c-237.973 0-430.917 192.922-430.917 430.915 0 225.544 173.274 410.595 393.938 429.35L756.523 1004l36.98-99.734c220.666-18.758 393.94-203.81 393.94-429.35zM938.955 601.827c16.776 16.662 16.776 43.733 0 60.458-16.61 16.662-42.828 15.757-59.434-.91L757.07 539.554 634.73 662.568c-16.66 16.725-43.79 16.725-60.457 0-16.72-16.605-16.72-43.734 0-60.458L696.78 479.606 573.48 356.98c-16.667-16.663-16.667-43.735 0-60.46 16.72-16.66 43.792-16.66 60.515 0L756.9 419.6l122.622-122.504c16.547-16.667 43.734-16.667 60.4 0 16.777 16.72 15.864 42.825-.856 59.546L816.848 479.543l122.106 122.284z"/></svg><svg width="52" height="41.17" viewBox="-483.75 -483.75 2515.5 1991.5" id="iconfont-tipserroroct" x="156"><path fill="#272636" d="M708.262 874.458l48.035 129.54 48.033-129.54zm48.036 30.166c237.637 0 430.31-192.67 430.31-430.31 0-237.64-192.672-430.313-430.31-430.313-237.644 0-430.314 192.673-430.314 430.317 0 237.637 192.67 430.308 430.314 430.308zm53.79-376.52c0 29.69-24.102 53.787-53.79 53.787-29.695 0-53.792-24.1-53.792-53.787V259.16c0-29.693 24.097-53.788 53.793-53.788 29.69 0 53.787 24.098 53.787 53.787v268.943zm-53.79 106.714c29.69 0 53.788 24.1 53.788 53.792s-24.1 53.786-53.788 53.786c-29.696 0-53.793-24.096-53.793-53.786s24.096-53.792 53.793-53.792z"/></svg></svg>