<?xml version="1.0" encoding="utf-8"?>
<!DOCTYPE svg PUBLIC "-//W3C//DTD SVG 1.1//EN" "http://www.w3.org/Graphics/SVG/1.1/DTD/svg11.dtd">
<svg version="1.1" id="图形" xmlns="http://www.w3.org/2000/svg" xmlns:xlink="http://www.w3.org/1999/xlink" x="0px" y="0px" width="1548px" height="1024px" viewBox="0 0 1548 1024" enable-background="new 0 0 1548 1024" xml:space="preserve">
  <path fill="#272636" d="M708.262-62.458l48.035-129.541 48.033 129.541zM756.298-92.624c237.637 0 430.311 192.67 430.311 430.309 0 237.642-192.673 430.314-430.311 430.314-237.644 0-430.314-192.672-430.314-430.316 0-237.637 192.67-430.308 430.314-430.308v0zM810.087 283.897c0-29.691-24.101-53.788-53.788-53.788-29.696 0-53.793 24.1-53.793 53.788v268.944c0 29.692 24.097 53.787 53.793 53.787 29.691 0 53.788-24.098 53.788-53.787v-268.944zM756.298 177.182c29.691 0 53.788-24.101 53.788-53.792 0-29.692-24.101-53.786-53.788-53.786-29.696 0-53.793 24.096-53.793 53.786s24.096 53.792 53.793 53.792v0z" transform="translate(0, 812) scale(1, -1)"/>
</svg>
