<?xml version="1.0" encoding="utf-8"?>
<!DOCTYPE svg PUBLIC "-//W3C//DTD SVG 1.1//EN" "http://www.w3.org/Graphics/SVG/1.1/DTD/svg11.dtd">
<svg version="1.1" id="图形" xmlns="http://www.w3.org/2000/svg" xmlns:xlink="http://www.w3.org/1999/xlink" x="0px" y="0px" width="1548px" height="1024px" viewBox="0 0 1548 1024" enable-background="new 0 0 1548 1024" xml:space="preserve">
  <path fill="#272636" d="M1187.442 337.085c-0.002 237.994-192.947 430.915-430.923 430.915-237.972 0-430.916-192.922-430.916-430.915 0-225.544 173.274-410.595 393.938-429.351l36.981-99.734 36.981 99.734c220.665 18.758 393.94 203.809 393.94 429.351zM938.955 210.173c16.776-16.662 16.776-43.733 0-60.458-16.611-16.662-42.828-15.757-59.434 0.909l-122.453 121.823-122.337-123.015c-16.662-16.725-43.792-16.725-60.458 0-16.719 16.605-16.719 43.734 0 60.458l122.508 122.504-123.303 122.627c-16.667 16.662-16.667 43.734 0 60.458 16.719 16.662 43.792 16.662 60.515 0l122.908-123.077 122.621 122.504c16.547 16.667 43.734 16.667 60.401 0 16.776-16.72 15.863-42.825-0.857-59.546l-122.218-122.903 122.106-122.284z" transform="translate(0, 812) scale(1, -1)"/>
</svg>
