<?xml version="1.0" encoding="utf-8"?>
<!DOCTYPE svg PUBLIC "-//W3C//DTD SVG 1.1//EN" "http://www.w3.org/Graphics/SVG/1.1/DTD/svg11.dtd">
<svg version="1.1" id="图形" xmlns="http://www.w3.org/2000/svg" xmlns:xlink="http://www.w3.org/1999/xlink" x="0px" y="0px" width="1024px" height="1024px" viewBox="0 0 1024 1024" enable-background="new 0 0 1024 1024" xml:space="preserve">
  <path fill="#272636" d="M505.376379 236.252117 748.978261 236.252117 707.047595 278.181065 754.804182 325.935696 927.37854 153.368408 754.804182-19.198879 707.047595 28.555751 748.979284 70.485723 505.376379 70.485723ZM866.494443 297.100974 866.494443 557.70534 666.530172 747.240067 109.253669 747.240067c-4.806666 0-8.702552-3.895727-8.702552-8.702196l0-875.897917c0-4.805446 3.895886-8.702196 8.702552-8.702196l748.538221 0c4.806666 0 8.702552 3.89675 8.702552 8.702196L866.494443 17.738381l-64.487306 0 0-81.353866c0-3.996011-3.23992-7.236821-7.237118-7.236821L172.274517-70.852306c-3.997198 0-7.237118 3.240811-7.237118 7.236821L165.037399 664.794333c0 3.997034 3.23992 7.236821 7.237118 7.236821l448.913146 0 0-137.349181c0-18.073634 14.653322-32.725332 32.726673-32.725332l148.092801 0 0-204.854645L866.494443 297.101997z" transform="translate(0, 812) scale(1, -1)"/>
</svg>
