<?xml version="1.0" encoding="utf-8"?>
<!DOCTYPE svg PUBLIC "-//W3C//DTD SVG 1.1//EN" "http://www.w3.org/Graphics/SVG/1.1/DTD/svg11.dtd">
<svg version="1.1" id="图形" xmlns="http://www.w3.org/2000/svg" xmlns:xlink="http://www.w3.org/1999/xlink" x="0px" y="0px" width="1024px" height="1024px" viewBox="0 0 1024 1024" enable-background="new 0 0 1024 1024" xml:space="preserve">
  <path fill="#272636" d="M511.998827 812C229.229858 812 0 582.770142 0 300s229.229858-512 511.998827-512 512 229.231031 512 512S794.768969 812 511.998827 812zM511.998827-143.985534C266.792606-143.985534 68.014466 54.793778 68.014466 300 68.014466 545.206222 266.792606 743.985534 511.998827 743.985534c245.207394 0 443.985534-198.779313 443.985534-443.985534C955.985534 54.793778 757.206222-143.985534 511.998827-143.985534zM760.184786 174.536764l-125.463236 125.463236 125.463236 125.463236c25.963936 25.962763 25.962763 68.056682 0 94.019445l-28.702105 28.702105c-25.963936 25.962763-68.056682 25.962763-94.019445 0l-125.463236-125.463236-125.463236 125.463236c-25.962763 25.962763-68.055509 25.962763-94.019445 0l-28.702105-28.702105c-25.962763-25.962763-25.963936-68.057854 0-94.019445l125.463236-125.463236-125.464409-125.463236c-25.963936-25.963936-25.962763-68.056682 0-94.019445l28.702105-28.702105c25.962763-25.963936 68.056682-25.963936 94.019445 0l125.463236 125.463236 125.463236-125.463236c25.963936-25.963936 68.056682-25.963936 94.019445 0l28.703277 28.702105C786.148722 106.480082 786.148722 148.572828 760.184786 174.536764z" transform="translate(0, 812) scale(1, -1)"/>
</svg>
