<?xml version="1.0" encoding="utf-8"?>
<!DOCTYPE svg PUBLIC "-//W3C//DTD SVG 1.1//EN" "http://www.w3.org/Graphics/SVG/1.1/DTD/svg11.dtd">
<svg version="1.1" id="图形" xmlns="http://www.w3.org/2000/svg" xmlns:xlink="http://www.w3.org/1999/xlink" x="0px" y="0px" width="1024px" height="1024px" viewBox="0 0 1024 1024" enable-background="new 0 0 1024 1024" xml:space="preserve">
  <path fill="#272636" d="M511.996 768c-237.971 0-430.915-192.922-430.915-430.915 0-238.001 192.944-430.922 430.915-430.922 237.976 0 430.922 192.921 430.922 430.922 0 237.994-192.945 430.915-430.922 430.915v0zM772.932 452.665l-304.717-304.697c-9.354-9.353-24.502-9.353-33.854 0l-16.929 16.923c-0.005 0.011-0.016 0.025-0.026 0.037l-118.455 118.476c-9.354 9.353-9.354 24.501 0 33.854l16.925 16.926c9.354 9.35 24.502 9.35 33.85 0l101.565-101.56 270.865 270.823c9.35 9.35 24.499 9.35 33.851 0l16.924-16.929c9.352-9.348 9.352-24.497 0.001-33.851v0zM772.932 452.665zM464.903-82.278l48.101-129.722 48.099 129.722z" transform="translate(0, 812) scale(1, -1)"/>
</svg>
