<?xml version="1.0" encoding="utf-8"?>
<!DOCTYPE svg PUBLIC "-//W3C//DTD SVG 1.1//EN" "http://www.w3.org/Graphics/SVG/1.1/DTD/svg11.dtd">
<svg version="1.1" id="图形" xmlns="http://www.w3.org/2000/svg" xmlns:xlink="http://www.w3.org/1999/xlink" x="0px" y="0px" width="1024px" height="1024px" viewBox="0 0 1024 1024" enable-background="new 0 0 1024 1024" xml:space="preserve">
  <path fill="#272636" d="M46.545455-212l651.636364 0c25.662061 0 46.545455 21.536 46.545455 48l0 240c0 0.32-0.155152 0.576-0.186182 0.896 1.706667 1.12 3.475394 2.176 5.15103 3.36l247.808-255.552c3.04097-3.136 7.012848-4.704 10.984727-4.704s7.943758 1.568 10.984727 4.672c6.050909 6.24 6.050909 16.384 0 22.624l-245.542788 253.216c39.222303 37.984 63.891394 91.776 63.891394 151.488 0 73.504-37.267394 138.112-93.277091 175.104 0.03103 0.32 0.186182 0.576 0.186182 0.896l0 80c0 0.544-0.248242 0.992-0.279273 1.504-0.062061 0.736-0.248242 1.376-0.403394 2.08-0.527515 2.272-1.427394 4.32-2.792727 6.112-0.217212 0.288-0.186182 0.64-0.403394 0.928l-248.242424 288c-0.093091 0.096-0.217212 0.096-0.310303 0.192-1.861818 2.08-4.251152 3.456-6.919758 4.288-0.589576 0.192-1.117091 0.256-1.737697 0.352-0.899879 0.16-1.737697 0.544-2.668606 0.544l-434.424242 0c-25.662061 0-46.545455-21.536-46.545455-48l0-928c0-26.464 20.883394-48 46.545455-48zM806.787879 252c0-97.056-76.582788-176-170.666667-176s-170.666667 78.944-170.666667 176 76.582788 176 170.666667 176 170.666667-78.944 170.666667-176zM496.484848 753.92l198.190545-229.92-182.675394 0c-6.826667 0-15.515152 13.44-15.515152 24l0 205.92zM31.030303 764c0 8.832 6.981818 16 15.515152 16l418.909091 0 0-232c0-25.888 20.324848-56 46.545455-56l201.69697 0 0-48.032c-23.893333 10.304-50.082909 16.032-77.575758 16.032-57.033697 0-108.481939-24.64-145.190788-64l-320.263758 0c-8.564364 0-15.515152-7.168-15.515152-16s6.950788-16 15.515152-16l295.780848 0c-17.532121-28.128-28.609939-60.832-31.216485-96l-264.564364 0c-8.564364 0-15.515152-7.168-15.515152-16s6.950788-16 15.515152-16l264.533333 0c2.606545-35.168 13.715394-67.872 31.216485-96l-295.749818 0c-8.564364 0-15.515152-7.168-15.515152-16s6.950788-16 15.515152-16l318.060606 0c0.651636 0 1.210182 0.288 1.861818 0.384 36.739879-39.584 88.343273-64.384 145.532121-64.384 27.492848 0 53.682424 5.728 77.575758 16.064l0-224.064c0-8.832-6.981818-16-15.515152-16l-651.636364 0c-8.688485 0-15.515152 7.04-15.515152 16l0 928zM170.666667 492l186.181818 0c8.564364 0 15.515152 7.168 15.515152 16s-6.950788 16-15.515152 16l-186.181818 0c-8.564364 0-15.515152-7.168-15.515152-16s6.950788-16 15.515152-16zM170.666667-20l403.393939 0c8.564364 0 15.515152 7.168 15.515152 16s-6.950788 16-15.515152 16l-403.393939 0c-8.564364 0-15.515152-7.168-15.515152-16s6.950788-16 15.515152-16z" transform="translate(0, 812) scale(1, -1)"/>
</svg>
