<?xml version="1.0" encoding="utf-8"?>
<!DOCTYPE svg PUBLIC "-//W3C//DTD SVG 1.1//EN" "http://www.w3.org/Graphics/SVG/1.1/DTD/svg11.dtd">
<svg version="1.1" id="图形" xmlns="http://www.w3.org/2000/svg" xmlns:xlink="http://www.w3.org/1999/xlink" x="0px" y="0px" width="1024px" height="1024px" viewBox="0 0 1024 1024" enable-background="new 0 0 1024 1024" xml:space="preserve">
  <path fill="#272636" d="M955.136 260.512C965.056 236.576 959.552 209.056 941.248 190.752L813.248 62.752C800.768 50.272 784.384 44 768 44 751.616 44 735.232 50.272 722.752 62.752L594.752 190.752C576.448 209.056 571.008 236.576 580.864 260.512 590.72 284.384 614.144 300 640 300L704 300C704 441.376 589.376 556 448 556 306.624 556 192 441.376 192 300 192 158.624 306.624 44 448 44 481.344 44 512.896 50.784 542.144 62.368L638.656-32.992C582.464-65.248 517.44-84 448-84 235.968-84 64 87.968 64 300 64 512.032 235.968 684 448 684 660.032 684 832 512.032 832 300L896 300C921.856 300 945.28 284.384 955.136 260.512Z" transform="translate(0, 812) scale(1, -1)"/>
</svg>
